<svg width="73" height="67" viewBox="0 0 73 67" fill="none" xmlns="http://www.w3.org/2000/svg">
<path d="M63.875 13.9583C60.4988 12.9812 56.7879 12.5625 53.2292 12.5625C47.2979 12.5625 40.9104 13.6792 36.5 16.75C32.0896 13.6792 25.7021 12.5625 19.7709 12.5625C13.8396 12.5625 7.4521 13.6792 3.04169 16.75V57.6479C3.04169 58.3458 3.8021 59.0437 4.56252 59.0437C4.86669 59.0437 5.01877 58.9042 5.32294 58.9042C9.42919 57.0896 15.3604 55.8333 19.7709 55.8333C25.7021 55.8333 32.0896 56.95 36.5 60.0208C40.6063 57.6479 48.0583 55.8333 53.2292 55.8333C58.2479 55.8333 63.4188 56.6708 67.6771 58.7646C67.9813 58.9042 68.1333 58.9042 68.4375 58.9042C69.1979 58.9042 69.9584 58.2062 69.9584 57.5083V16.75C68.1333 15.4937 66.1563 14.6562 63.875 13.9583ZM63.875 51.6458C60.5292 50.6687 56.8792 50.25 53.2292 50.25C48.0583 50.25 40.6063 52.0646 36.5 54.4375V22.3333C40.6063 19.9604 48.0583 18.1458 53.2292 18.1458C56.8792 18.1458 60.5292 18.5646 63.875 19.5417V51.6458Z" fill="url(#paint0_linear_6_3)"/>
<defs>
<linearGradient id="paint0_linear_6_3" x1="36.5" y1="12.5625" x2="36.5" y2="60.0208" gradientUnits="userSpaceOnUse">
<stop stop-color="#2F0571"/>
<stop offset="0.345" stop-color="#702E44"/>
<stop offset="1" stop-color="#C96508"/>
</linearGradient>
</defs>
</svg>
